<svg xmlns="http://www.w3.org/2000/svg" width="32" height="32" enable-background="new 0 0 32 32" viewBox="0 0 32 32"><path fill="#263238" d="M29.5 27h-6c-.276 0-.5-.224-.5-.5v-5c0-.276.224-.5.5-.5h6c.276 0 .5.224.5.5v5C30 26.776 29.776 27 29.5 27zM24 26h5v-4h-5V26zM18.5 27h-6c-.276 0-.5-.224-.5-.5v-5c0-.276.224-.5.5-.5h6c.276 0 .5.224.5.5v5C19 26.776 18.776 27 18.5 27zM13 26h5v-4h-5V26zM29.5 29h-6c-.276 0-.5-.224-.5-.5s.224-.5.5-.5h6c.276 0 .5.224.5.5S29.776 29 29.5 29zM18.5 29h-6c-.276 0-.5-.224-.5-.5s.224-.5.5-.5h6c.276 0 .5.224.5.5S18.776 29 18.5 29zM7.5 29h-6C1.224 29 1 28.776 1 28.5S1.224 28 1.5 28h6C7.776 28 8 28.224 8 28.5S7.776 29 7.5 29zM7.5 27h-6C1.224 27 1 26.776 1 26.5v-5C1 21.224 1.224 21 1.5 21h6C7.776 21 8 21.224 8 21.5v5C8 26.776 7.776 27 7.5 27zM2 26h5v-4H2V26zM26.5 12h-22C4.224 12 4 11.776 4 11.5v-8C4 3.224 4.224 3 4.5 3h22C26.776 3 27 3.224 27 3.5v8C27 11.776 26.776 12 26.5 12zM5 11h21V4H5V11z"/><path fill="#263238" d="M15.5 15c-.276 0-.5-.224-.5-.5v-3c0-.276.224-.5.5-.5s.5.224.5.5v3C16 14.776 15.776 15 15.5 15zM15.5 20c-.276 0-.5-.224-.5-.5v-3c0-.276.224-.5.5-.5s.5.224.5.5v3C16 19.776 15.776 20 15.5 20z"/><path fill="#263238" d="M26.5 20c-.276 0-.5-.224-.5-.5V17H5v2.5C5 19.776 4.776 20 4.5 20S4 19.776 4 19.5v-3C4 16.224 4.224 16 4.5 16h22c.276 0 .5.224.5.5v3C27 19.776 26.776 20 26.5 20zM22.5 9h-14C8.224 9 8 8.776 8 8.5S8.224 8 8.5 8h14C22.776 8 23 8.224 23 8.5S22.776 9 22.5 9zM22.5 7h-14C8.224 7 8 6.776 8 6.5S8.224 6 8.5 6h14C22.776 6 23 6.224 23 6.5S22.776 7 22.5 7z"/></svg>