<svg xmlns="http://www.w3.org/2000/svg" data-name="Layer 1" viewBox="0 0 64 64"><path fill="#c9e6fb" d="M36,30h1a2,2,0,0,1,2,2V54a2,2,0,0,1-2,2H5a2,2,0,0,1-2-2V32a2,2,0,0,1,2-2H26"/><rect width="18" height="34" x="43" y="27" fill="#65788f"/><rect width="10" height="6" x="47" y="33" fill="#e6eef3"/><rect width="10" height="6" x="47" y="45" fill="#e6eef3"/><path fill="#65788f" d="M20,47a4,4,0,0,1,0-8V34H18.55a.88.88,0,0,0-.9.86v.58a.89.89,0,0,1-.59.81,7.71,7.71,0,0,0-1.69.94,1,1,0,0,1-1,.09l-.53-.3a.93.93,0,0,0-1.24.32l-1.45,2.4a.85.85,0,0,0,.33,1.18l.53.29a.83.83,0,0,1,.44.84,7,7,0,0,0,0,2,.83.83,0,0,1-.44.84l-.53.29a.85.85,0,0,0-.33,1.18l1.45,2.4a.93.93,0,0,0,1.24.32l.53-.3a1,1,0,0,1,1,.09,7.71,7.71,0,0,0,1.69.94.89.89,0,0,1,.59.81v.58a.88.88,0,0,0,.9.86H20Z"/><path fill="#7cb2f8" d="M7.25,24A9.69,9.69,0,0,1,7,21.83a9.06,9.06,0,0,1,9-9.17,8.69,8.69,0,0,1,4.54,1.27,9.17,9.17,0,0,1-.29-2.24,8.48,8.48,0,0,1,16.93-.91,6,6,0,0,1,3.35-1A6.2,6.2,0,0,1,46.62,16v.09a7.41,7.41,0,0,1,2.83-.57A7.64,7.64,0,0,1,57,23.28q0,.36,0,.72"/><polygon fill="#d98285" points="33 26 37 26 31 20 25 26 29 26 29 32 33 32 33 26"/><path d="M5 57H18v3H12v2H30V60H24V57H37a3 3 0 0 0 3-3V32a3 3 0 0 0-3-3H36v2h1a1 1 0 0 1 1 1V54a1 1 0 0 1-1 1H5a1 1 0 0 1-1-1V32a1 1 0 0 1 1-1H26V29H5a3 3 0 0 0-3 3V54A3 3 0 0 0 5 57zm15 0h2v3H20zM61 26H43a1 1 0 0 0-1 1V61a1 1 0 0 0 1 1H61a1 1 0 0 0 1-1V27A1 1 0 0 0 61 26zM60 60H44V28H60z"/><path d="M47 40H57a1 1 0 0 0 1-1V33a1 1 0 0 0-1-1H47a1 1 0 0 0-1 1v6A1 1 0 0 0 47 40zm1-6h8v4H48zM47 52H57a1 1 0 0 0 1-1V45a1 1 0 0 0-1-1H47a1 1 0 0 0-1 1v6A1 1 0 0 0 47 52zm1-6h8v4H48z"/><rect width="12" height="2" x="46" y="55"/><rect width="2" height="2" x="53" y="35"/><rect width="2" height="2" x="53" y="47"/><path d="M20,40V38a5,5,0,0,0,0,10V46a3,3,0,0,1,0-6Z"/><path d="M20,33H18.55a1.88,1.88,0,0,0-1.9,1.86v.48a7.06,7.06,0,0,0-1.83,1.06l-.53-.29a1.93,1.93,0,0,0-2.57.67l-1.46,2.4a1.84,1.84,0,0,0-.2,1.43A1.87,1.87,0,0,0,11,41.76l.44.24a8.51,8.51,0,0,0-.06,1,8.39,8.39,0,0,0,.06,1l-.44.24a1.87,1.87,0,0,0-.91,1.15,1.8,1.8,0,0,0,.21,1.43l1.44,2.4a1.94,1.94,0,0,0,2.58.67l.48-.27a8.83,8.83,0,0,0,1.88,1v.48A1.88,1.88,0,0,0,18.55,53H20V51H18.65v-.44a1.88,1.88,0,0,0-1.22-1.74A6.83,6.83,0,0,1,16,48a2,2,0,0,0-2.11-.15l-.47.26-1.32-2.19.4-.21a1.85,1.85,0,0,0,.95-1.86,6.05,6.05,0,0,1,0-1.7,1.85,1.85,0,0,0-.95-1.86l-.4-.21,1.32-2.19.47.26A2,2,0,0,0,16,38a6.83,6.83,0,0,1,1.47-.82,1.88,1.88,0,0,0,1.22-1.74V35H20Z"/><rect width="3" height="2" x="22" y="34"/><rect width="10" height="2" x="22" y="42"/><rect width="3" height="2" x="22" y="50"/><rect width="6" height="2" x="22" y="38"/><rect width="6" height="2" x="22" y="46"/><path d="M8.23,23.77A8.44,8.44,0,0,1,8,21.83a8.08,8.08,0,0,1,8-8.17,7.78,7.78,0,0,1,4,1.12,1,1,0,0,0,1.11,0,1,1,0,0,0,.38-1.05,8,8,0,0,1-.26-2,7.48,7.48,0,0,1,14.93-.81,1,1,0,0,0,.57.8,1,1,0,0,0,1-.07,5.06,5.06,0,0,1,2.8-.85,5.23,5.23,0,0,1,5.13,5.36,1,1,0,0,0,.44.83A1,1,0,0,0,47,17a6.53,6.53,0,0,1,2.45-.49A6.65,6.65,0,0,1,56,23.28q0,.31,0,.63l2,.18a7.32,7.32,0,0,0,0-.81,8.65,8.65,0,0,0-8.55-8.73,8.5,8.5,0,0,0-1.94.23,7.17,7.17,0,0,0-7-6,7,7,0,0,0-2.6.5A9.5,9.5,0,0,0,28.7,2a9.61,9.61,0,0,0-9.49,9.69c0,.18,0,.35,0,.53A9.71,9.71,0,0,0,16,11.66,10.2,10.2,0,0,0,6.28,24.23Z"/><path d="M34 32V27h3a1 1 0 0 0 .92-.62 1 1 0 0 0-.21-1.09l-6-6a1 1 0 0 0-1.42 0l-6 6a1 1 0 0 0-.21 1.09A1 1 0 0 0 25 27h3v5a1 1 0 0 0 1 1h4A1 1 0 0 0 34 32zm-2-6v5H30V26a1 1 0 0 0-1-1H27.41L31 21.41 34.59 25H33A1 1 0 0 0 32 26zM34.4 18.8l1.2-1.6-4-3a1 1 0 0 0-1.2 0l-4 3 1.2 1.6L31 16.25z"/></svg>