 <!DOCTYPE svg PUBLIC "-//W3C//DTD SVG 1.1//EN" "http://www.w3.org/Graphics/SVG/1.1/DTD/svg11.dtd">

<svg xmlns="http://www.w3.org/2000/svg" width="865.76" height="682.89" viewBox="0 0 865.76 682.89">

<defs>

<style xmlns="http://www.w3.org/1999/xhtml">*, ::after, ::before { box-sizing: border-box; }
img, svg { vertical-align: middle; }
</style>

<style xmlns="http://www.w3.org/1999/xhtml">*, body, html { -webkit-font-smoothing: antialiased; }
img, svg { max-width: 100%; }
</style>

</defs>

<polygon points="747.92 426 797.09 426 825.24 285.66 780.22 264.97 747.92 426" fill="#dbdbdb"/>

<polygon points="607.14 426 747.92 426 780.22 264.97 639.44 264.97 607.14 426" fill="#ebebeb"/>

<rect x="773.17" y="350.71" width="75.38" height="154.66" fill="#dbdbdb"/>

<polygon points="570.98 505.37 591.57 505.37 622.25 350.7 570.98 350.7 570.98 505.37" fill="#dbdbdb"/>

<rect x="731.76" y="350.71" width="41.42" height="154.66" fill="#ebebeb"/>

<rect x="529.56" y="350.71" width="41.42" height="154.66" fill="#ebebeb"/>

<rect x="570.96" y="425.99" width="160.78" height="79.37" fill="#ebebeb"/>

<rect x="570.96" y="391.7" width="160.78" height="34.63" fill="#ebebeb"/>

<path d="M763.1,350.7l-15.63-.28-15.65-.19h-.46v.48l-.17,18.12-.08,18.09c0,12.07-.08,24.13,0,36.2s0,24.13.22,36.19.26,24.13.51,36.2q.39-18.11.53-36.2c.15-12.06.17-24.13.21-36.19s0-24.13,0-36.2V368.83l-.17-18.12-.48.48,15.65-.2Z" fill="#dbdbdb"/>

<path d="M571,350.7c-.33,12.11-.48,24.22-.61,36.33l-.18,36.34.18,36.33.22,18.18L571,496l.37-18.15.22-18.18.18-36.33L571.57,387C571.44,374.92,571.29,362.81,571,350.7Z" fill="#dbdbdb"/>

<path d="M571,426c13.4.31,26.79.47,40.19.59l40.2.19,40.18-.19,20.16-.22,20.16-.37-20.16-.39-20.16-.21-40.1-.19-40.32.2C597.77,425.52,584.38,425.68,571,426Z" fill="#dbdbdb"/>

<path d="M571,391.68c13.4.33,26.79.48,40.19.61l40.2.17,40.18-.17,20.16-.22,20.16-.39-20.16-.38-20.16-.22-40.1-.17-40.2.18C597.77,391.3,584.38,391.3,571,391.68Z" fill="#dbdbdb"/>

<polygon points="819.89 505.35 820.91 517.88 823.3 546.84 834.22 546.84 836.59 517.88 837.62 505.35 819.89 505.35" fill="#c7c7c7"/>

<polygon points="837.62 505.35 819.89 505.35 820.91 517.88 836.59 517.88 837.62 505.35" fill="#a6a6a6"/>

<polygon points="743.61 505.35 744.62 517.88 747 546.84 757.92 546.84 760.29 517.88 761.32 505.35 743.61 505.35" fill="#c7c7c7"/>

<polygon points="761.32 505.35 743.61 505.35 744.62 517.88 760.29 517.88 761.32 505.35" fill="#a6a6a6"/>

<polygon points="617.05 505.35 618.07 517.88 620.45 546.84 631.36 546.84 633.75 517.88 634.78 505.35 617.05 505.35" fill="#c7c7c7"/>

<polygon points="634.78 505.35 617.05 505.35 618.07 517.88 633.75 517.88 634.78 505.35" fill="#a6a6a6"/>

<polygon points="540.74 505.35 541.76 517.88 544.15 546.84 555.05 546.84 557.44 517.88 558.46 505.35 540.74 505.35" fill="#c7c7c7"/>

<polygon points="540.74 505.35 541.76 517.88 557.44 517.88 558.46 505.35 540.74 505.35" fill="#a6a6a6"/>

<rect x="38.65" y="75.02" width="237.3" height="316.29" fill="#dbdbdb"/>

<rect x="49.9" y="87.69" width="102.61" height="140.68" fill="#fff"/>

<rect x="162.09" y="87.69" width="102.61" height="140.68" fill="#fff"/>

<rect x="49.9" y="237.95" width="102.61" height="140.68" fill="#fff"/>

<rect x="162.09" y="237.95" width="102.61" height="140.68" fill="#fff"/>

<rect x="38.65" y="75.02" width="48.86" height="452.51" fill="#ebebeb"/>

<polygon points="78.26 96.52 78.63 145.45 78.77 194.38 79.03 292.23 78.77 390.08 78.63 439.01 78.26 487.94 77.87 439.01 77.73 390.08 77.48 292.23 77.73 194.38 77.87 145.45 78.26 96.52" fill="#fff"/>

<polygon points="55.82 107.88 56.19 151.56 56.41 195.25 56.59 282.62 56.41 370 56.19 413.69 55.82 457.37 55.43 413.69 55.22 370 55.04 282.62 55.23 195.25 55.45 151.56 55.82 107.88" fill="#fff"/>

<polygon points="67.03 118.19 67.4 169.33 67.54 220.49 67.81 322.8 67.56 425.12 67.42 476.26 67.03 527.42 66.66 476.26 66.52 425.12 66.26 322.8 66.52 220.49 66.66 169.33 67.03 118.19" fill="#fff"/>

<polygon points="47.48 99.1 47.85 152.65 47.99 206.18 48.25 313.26 47.99 420.34 47.85 473.89 47.48 527.42 47.09 473.89 46.97 420.34 46.7 313.26 46.97 206.18 47.1 152.65 47.48 99.1" fill="#fff"/>

<rect x="227.1" y="75" width="48.86" height="452.51" fill="#ebebeb"/>

<polygon points="236.36 96.52 236.73 145.45 236.87 194.38 237.13 292.23 236.87 390.08 236.73 439.01 236.36 487.94 235.97 439.01 235.85 390.08 235.58 292.23 235.85 194.38 235.97 145.45 236.36 96.52" fill="#fff"/>

<polygon points="258.8 107.88 259.17 151.56 259.39 195.25 259.56 282.62 259.39 370 259.17 413.69 258.8 457.37 258.41 413.69 258.19 370 258.02 282.62 258.19 195.25 258.41 151.56 258.8 107.88" fill="#fff"/>

<polygon points="247.57 118.19 247.94 169.33 248.08 220.49 248.35 322.8 248.08 425.12 247.96 476.26 247.57 527.42 247.2 476.26 247.06 425.12 246.8 322.8 247.06 220.49 247.2 169.33 247.57 118.19" fill="#fff"/>

<polygon points="267.13 99.1 267.51 152.65 267.65 206.18 267.9 313.26 267.65 420.34 267.51 473.89 267.13 527.42 266.75 473.89 266.61 420.34 266.37 313.26 266.61 206.18 266.75 152.65 267.13 99.1" fill="#fff"/>

<rect x="467.13" y="95.16" width="83.06" height="100.75" fill="#ebebeb"/>

<rect x="476.62" y="104.36" width="64.08" height="82.36" fill="#fff"/>

<rect x="476.62" y="104.36" width="2.5" height="82.36" fill="#dbdbdb"/>

<rect x="550.21" y="95.16" width="2.5" height="100.75" fill="#dbdbdb"/>

<rect x="498.1" y="115.71" width="15.1" height="45.02" fill="#dbdbdb"/>

<path d="M532.58,169.19H490.7v-23.6h41.88Zm-40.32-1.55H531v-20.5H492.26Z" fill="#ebebeb"/>

<rect x="697.5" y="95.16" width="83.06" height="100.75" fill="#ebebeb"/>

<rect x="706.99" y="104.36" width="64.08" height="82.36" fill="#fff"/>

<rect x="706.99" y="104.36" width="2.5" height="82.36" fill="#dbdbdb"/>

<rect x="780.56" y="95.16" width="2.5" height="100.75" fill="#dbdbdb"/>

<rect x="728.45" y="115.71" width="15.1" height="45.02" fill="#dbdbdb"/>

<path d="M762.92,169.19H721.05v-23.6h41.87Zm-40.31-1.55h38.76v-20.5H722.61Z" fill="#ebebeb"/>

<rect x="582.31" y="95.16" width="83.06" height="100.75" fill="#ebebeb"/>

<rect x="591.8" y="104.36" width="64.08" height="82.36" fill="#fff"/>

<rect x="591.8" y="104.36" width="2.5" height="82.36" fill="#dbdbdb"/>

<rect x="665.38" y="95.16" width="2.5" height="100.75" fill="#dbdbdb"/>

<rect x="617.63" y="125.65" width="12.95" height="32.74" fill="#ebebeb"/>

<path d="M645,168.87H608.67V144.75H645Zm-34.77-1.55h33.22v-21H610.22Z" fill="#dbdbdb"/>

<path d="M754.42,142.17c0-.34,0-.69,0-1a34.09,34.09,0,0,0-1.81-11l7.25-4.21-7-12.06-7.32,4.26a34.27,34.27,0,0,0-9.57-7.4l2.27-8.58-13.48-3.57-2.22,8.37c-.79,0-1.6-.08-2.41-.08a34.21,34.21,0,0,0-9.6,1.36L706,100.36l-12.06,7,4.29,7.38a34.2,34.2,0,0,0-8.38,10.31l-8.76-2.33-3.57,13.48,8.44,2.24c-.07.88-.1,1.77-.1,2.67a34.2,34.2,0,0,0,1.69,10.67l-7.46,4.33,7,12.06,7.4-4.3a34.33,34.33,0,0,0,10.8,8.17l-2.08,7.86,13.48,3.57,2.14-8.09c.44,0,.87,0,1.31,0a34.18,34.18,0,0,0,12.06-2.18l4,6.91,12.06-7L744,165.77a34.37,34.37,0,0,0,7.19-10l7.7,2,3.57-13.48Zm-34.29,22.38a23.43,23.43,0,1,1,23.43-23.43A23.43,23.43,0,0,1,720.13,164.55Z" fill="#0c2e6f" data-secondary="true"/>

<path d="M663.31,626.77a23.72,23.72,0,0,1-12.45-.58c-9.34-2.56-14.46,1.3-14.46,1.3l-9.61-26.32,36.2-8.54,6.48,18.59C656.32,614.58,663.31,626.77,663.31,626.77Z" fill="#f9b499"/>

<path d="M718.1,624.12s-3.11,3.7-21,11.13c0,0-41.73,19.66-53.69,18.48,0,0-10.8-22.8-7-26.24,0,0,5.12-3.86,14.46-1.3a23.72,23.72,0,0,0,12.45.58s-7-12.19,6.16-15.55c0,0,4.74,8.85,14.4,9.18C683.87,620.4,712.74,617.26,718.1,624.12Z" fill="#4a5f78" data-primary="true"/>

<path d="M712.3,635,648,660c-3.4.25-4.63-6.26-4.63-6.26,12,1.18,53.69-18.48,53.69-18.48,17.89-7.43,21-11.13,21-11.13C726.54,631.47,712.3,635,712.3,635Z" fill="#0c2e6f" data-secondary="true"/>

<polygon points="626.79 601.17 634.25 621.58 662.99 592.63 626.79 601.17" fill="#f7a48b"/>

<path d="M551,448.08s46.09-3.14,57,14.58l69.27,122L624.91,615.3l-48.77-97.12Z" fill="#0c2e6f" data-secondary="true"/>

<path d="M551,448.08s46.09-3.14,57,14.58l69.27,122L624.91,615.3l-48.77-97.12Z" opacity="0.2"/>

<polygon points="624.91 615.29 616.57 598.69 667.69 567.81 677.27 584.69 624.91 615.29" fill="#4a5f78" data-primary="true"/>

<polygon points="624.91 615.29 616.57 598.69 667.69 567.81 677.27 584.69 624.91 615.29" opacity="0.2"/>

<path d="M272.37,355.39s-24.81-10.32-36.89,34c0,0-54.48,151.82-4.08,225.93,0,0,9.92,25.33,139.7,26.76,0,0,156.35,1.66,203.27-26,0,0,22.14-8,20.23-57.73L551,475.88l-158.74-24Z" fill="#3f4347"/>

<path d="M318,332l-24.94,1.43s-26.58,4.43-20.54,39.87c0,0,10.07,42.29,28.59,72.09,0,0,2.82,9.26,24.17,10.06,0,0,28.59,43.5,51.14,35.44,0,0-.6-14.29,35.84-31l35-27.78-18.12-18.13,29.2,12.57,19.53-5.72L482.75,399S446.51,379.7,430,365.2l-15.3-12.88S382.88,329,361.13,335Z" fill="#4a5f78" data-primary="true"/>

<polygon points="336.96 414.34 316.83 374.87 349.85 415.95 336.96 414.34" opacity="0.2"/>

<polygon points="403.01 385.34 433.62 430.45 445.7 430.45 403.01 385.34" opacity="0.2"/>

<path d="M422.34,451.86l50.75-12.15,4.83-18.93s-12.49-1.77-27.79,5.76c0,0-10.07,6.19-27.79,5.25Z" fill="#f9b499"/>

<path d="M674.85,546l-35.44,45.5q-5.85-3.59-11.79-7.32c-17.46-11-35.47-23-53.85-36.17-17-12.15-33-24.28-47.93-36.24-104.3,12.08-149.41-20.95-149.41-20.95.81-17.72,35.84-31,35.84-31l4.23-3.35,61.42-11.66h69L638.2,517l23.13,18.3Z" fill="#0c2e6f" data-secondary="true"/>

<path d="M674.85,546l-35.44,45.5q-5.85-3.59-11.79-7.32l33.71-48.88Z" fill="#4a5f78" data-primary="true"/>

<path d="M693.38,578.65a24.78,24.78,0,0,1-10.48,7.65c-9.26,4-10.87,10.47-10.87,10.47l-25.11-14.88,23.73-30.47,17.49,10.72C679.68,573.41,693.38,578.65,693.38,578.65Z" fill="#f9b499"/>

<path d="M736.06,540.79s-.09,5-9.71,22.64c0,0-20.89,43-31.36,49.85,0,0-23.76-11.27-23-16.51,0,0,1.61-6.44,10.87-10.47a24.78,24.78,0,0,0,10.48-7.65s-13.7-5.24-5.24-16.51c0,0,9.67,4,17.72-2C705.86,560.12,727.2,538.78,736.06,540.79Z" fill="#4a5f78" data-primary="true"/>

<path d="M738.48,553.28l-35.62,62c-2.6,2.41-7.87-2-7.87-2,10.47-6.84,31.36-49.85,31.36-49.85,9.62-17.63,9.71-22.64,9.71-22.64C747.74,541.19,738.48,553.28,738.48,553.28Z" fill="#0c2e6f" data-secondary="true"/>

<polygon points="646.92 581.89 657.63 588.24 670.65 551.42 646.92 581.89" fill="#f7a48b"/>

<path d="M229.84,632.61c0,8.9-32.72,16.11-73.09,16.11s-73.1-7.21-73.1-16.11a4.8,4.8,0,0,1,1.47-3.22c6.77-7.35,36.26-12.89,71.63-12.89s64.86,5.54,71.63,12.89A4.78,4.78,0,0,1,229.84,632.61Z" fill="#2e3135"/>

<path d="M229.84,632.61c0,8.9-32.72,16.11-73.09,16.11s-73.1-7.21-73.1-16.11a4.8,4.8,0,0,1,1.47-3.22c6.77,7.35,36.26,12.89,71.63,12.89s64.86-5.54,71.63-12.89A4.78,4.78,0,0,1,229.84,632.61Z" opacity="0.2"/>

<path d="M192.83,225l18-19.6-18.71-17.14a13.29,13.29,0,0,0-18.78.82h0a13.29,13.29,0,0,0,.82,18.78l6.26,5.73L99.62,412.32h-5.9v-6.44a1.61,1.61,0,0,0-3.22,0v6.44h-1a3.83,3.83,0,0,0,0,7.65h1v9.27a1.61,1.61,0,0,0,3.22,0V420h5.43L149.3,621.74h10.5l-50.4-206,78.95-194.89Z" fill="#2e3135"/>

<path d="M318,301.9v28.18a15.73,15.73,0,0,0,7.21,13.26c4.76,3.05,12.3,6,23.83,6.16,0,0,15.7,1.61,12.08-14.5l-3.22-20.54Z" fill="#f9b499"/>

<path d="M357.91,314.46,361.13,335s-22.27,1.91-31.67-17.37Z" fill="#f7a48b"/>

<rect x="314.19" y="238.55" width="61.66" height="85.08" rx="30.83" transform="translate(-49.86 75.85) rotate(-11.71)" fill="#f9b499"/>

<path d="M309.38,285.06h11.88a0,0,0,0,1,0,0v23.76a0,0,0,0,1,0,0H309.38a11.88,11.88,0,0,1-11.88-11.88v0a11.88,11.88,0,0,1,11.88-11.88Z" transform="translate(-86.25 131.5) rotate(-21.13)" fill="#f9b499"/>

<path d="M300.87,288.65s-8.61-4.39-7.4-16.47l-3.22,3.22s-4.83-20.54,9.26-33.43c0,0-4-4-.4-12.08a37.74,37.74,0,0,1,10.27-10.44s-2.22,4.8-1.81,7.62c0,0,11.82-17.65,37.72-7.62,0,0,15.84,9.63,31.14,8a19.75,19.75,0,0,1-9.26,6.45s22.07,14.18,6.4,33.06l-.74-3.61s-.44-1.83-.83-3.16c0,0-4.43,1.49-7.65-3.74,0,0-22.15,1.21-28.59-2.42a4.93,4.93,0,0,0,2.82,4.84s-10.07,4.83-19.33.8A58.41,58.41,0,0,1,316.42,295C316.35,290.09,313,286.1,300.87,288.65Z" fill="#0c2e6f" data-secondary="true"/>

<path d="M307.52,236.8s44.75-13.76,62.87,16.45c0,0-4.83-14.9-17.72-22.15,0,0,5.15,2,9,0,0,0-3.86,0-11.63-4.38a32.33,32.33,0,0,0-17-4.27C325.33,222.73,315.55,225.76,307.52,236.8Z" opacity="0.2"/>

<path d="M305.55,244.79a37.05,37.05,0,0,1-2.95,10.92s-7.25,13.55,1.47,17.83c0,0-2.95-4.45,1.48-13.38C305.55,260.16,310,252,305.55,244.79Z" opacity="0.2"/>

<rect x="410.66" y="422.39" width="11.68" height="37.45" fill="#4a5f78" data-primary="true"/>

<rect x="410.66" y="422.39" width="11.68" height="37.45" opacity="0.2"/>

<path d="M422.34,456.47l55.58-11.64h89.7a5.77,5.77,0,0,0,5.61-4.41l21.11-86.36a9.22,9.22,0,0,0-9-11.41H501.76a6.75,6.75,0,0,0-6.56,5.17l-22.11,91.89-50.75,12.15Z" fill="#9ea0a3"/>

<ellipse cx="537.52" cy="390.78" rx="8.86" ry="8.66" transform="translate(-51.83 697.87) rotate(-63.54)" fill="none" stroke="#fff" stroke-miterlimit="10"/>

<path d="M198,271.37s-33.43-31-3.23-67.66c0,0,25.78-28.19,61.22-6Z" fill="#2e3135"/>

<ellipse cx="227.73" cy="235.47" rx="47.26" ry="11.03" transform="translate(-97.76 272.38) rotate(-52.43)" fill="#4a5f78" data-primary="true"/>

<circle cx="230.24" cy="235.53" r="9.26" fill="#fff" opacity="0.2"/>

<rect x="401" y="37.7" width="324.39" height="249.48" rx="14.14" fill="#fff"/>

<path d="M725.39,51.85v29H401v-29A14.15,14.15,0,0,1,415.14,37.7H711.25A14.15,14.15,0,0,1,725.39,51.85Z" fill="#4a5f78" data-primary="true"/>

<circle cx="424.49" cy="58.65" r="6.98" fill="#fff"/>

<circle cx="448.61" cy="58.65" r="6.98" fill="#fff"/>

<circle cx="472.73" cy="58.65" r="6.98" fill="#fff"/>

<line x1="698.09" y1="65.63" x2="710.16" y2="53.57" fill="none" stroke="#fff" stroke-miterlimit="10"/>

<line x1="698.09" y1="53.57" x2="710.16" y2="65.63" fill="none" stroke="#fff" stroke-miterlimit="10"/>

<rect x="599.06" y="107.53" width="69.83" height="71.1" fill="#4a5f78" data-primary="true"/>

<polygon points="604.14 173.55 625.73 134.19 637.15 159.59 646.04 145.62 663.81 173.55 604.14 173.55" fill="#0c2e6f" data-secondary="true"/>

<circle cx="639.06" cy="128.48" r="4.44" fill="#fff"/>

<polygon points="435.28 143.08 435.28 153.24 475.91 172.28 475.91 160.86 447.98 148.16 477.18 138 477.18 125.31 435.28 143.08" fill="#0c2e6f" data-secondary="true"/>

<polygon points="549.55 154.51 549.55 144.35 508.92 125.31 508.92 136.73 536.85 149.43 507.65 159.59 507.65 172.28 549.55 154.51" fill="#0c2e6f" data-secondary="true"/>

<polygon points="479.72 178.63 489.87 178.63 505.11 117.69 494.95 117.69 479.72 178.63" fill="#0c2e6f" data-secondary="true"/>

<rect x="431.47" y="216.72" width="55.86" height="6.35" fill="#0c2e6f" data-secondary="true"/>

<rect x="431.47" y="248.46" width="44.44" height="6.35" fill="#0c2e6f" data-secondary="true"/>

<rect x="494.95" y="248.46" width="44.44" height="6.35" fill="#0c2e6f" data-secondary="true"/>

<rect x="574.94" y="248.46" width="44.44" height="6.35" fill="#0c2e6f" data-secondary="true"/>

<rect x="638.42" y="248.46" width="44.44" height="6.35" fill="#0c2e6f" data-secondary="true"/>

<rect x="431.47" y="233.23" width="26.66" height="6.35" fill="#0c2e6f" data-secondary="true"/>

<rect x="460.67" y="233.23" width="8.89" height="6.35" fill="#0c2e6f" data-secondary="true"/>

<rect x="494.95" y="233.23" width="26.66" height="6.35" fill="#0c2e6f" data-secondary="true"/>

<rect x="524.15" y="233.23" width="8.89" height="6.35" fill="#0c2e6f" data-secondary="true"/>

<rect x="574.94" y="233.23" width="26.66" height="6.35" fill="#0c2e6f" data-secondary="true"/>

<rect x="604.14" y="233.23" width="8.89" height="6.35" fill="#0c2e6f" data-secondary="true"/>

<rect x="639.69" y="233.23" width="26.66" height="6.35" fill="#0c2e6f" data-secondary="true"/>

<rect x="668.89" y="233.23" width="8.89" height="6.35" fill="#0c2e6f" data-secondary="true"/>

<rect x="494.95" y="216.72" width="55.86" height="6.35" fill="#0c2e6f" data-secondary="true"/>

<rect x="574.94" y="216.72" width="55.86" height="6.35" fill="#0c2e6f" data-secondary="true"/>

<rect x="638.42" y="216.72" width="55.86" height="6.35" fill="#0c2e6f" data-secondary="true"/>

<rect x="265.58" y="96.8" width="110.02" height="81.11" rx="6.72" fill="#0c2e6f" data-secondary="true"/>

<!-- <path d="M283.92,127.17a12.83,12.83,0,0,1,4.93-4.93,14,14,0,0,1,7-1.77,13.77,13.77,0,0,1,8,2.33,12.16,12.16,0,0,1,4.78,6.45h-6.26a6.43,6.43,0,0,0-2.62-2.91,7.69,7.69,0,0,0-3.91-1,8,8,0,0,0-4.22,1.11,7.56,7.56,0,0,0-2.87,3.13,11.4,11.4,0,0,0,0,9.47,7.5,7.5,0,0,0,2.87,3.15,8,8,0,0,0,4.22,1.11,7.6,7.6,0,0,0,3.91-1,6.61,6.61,0,0,0,2.62-2.94h6.26a12.08,12.08,0,0,1-4.76,6.47,13.81,13.81,0,0,1-8,2.32,14,14,0,0,1-7-1.77,12.94,12.94,0,0,1-4.93-4.92,14,14,0,0,1-1.81-7.15A14.21,14.21,0,0,1,283.92,127.17Z" fill="#fff"/> -->

<path d="M333.62,136.48h-7.35V144h-5.13v-7.55h-7.35v-4.74h7.35V124.2h5.13v7.54h7.35Z" fill="#fff"/>

<path d="M359.83,136.48h-7.35V144h-5.13v-7.55H340v-4.74h7.35V124.2h5.13v7.54h7.35Z" fill="#fff"/>

<!-- <rect x="624.69" y="299.17" width="107.95" height="85.29" rx="14.88" fill="#4a5f78" data-primary="true"/> -->

<!-- <path d="M659.09,342.5a10.14,10.14,0,0,1-4.31,4.1,15.69,15.69,0,0,1-7.4,1.56H641.3v13.92H634V325.82h13.35a16.09,16.09,0,0,1,7.16,1.46,10.12,10.12,0,0,1,4.45,4,11.72,11.72,0,0,1,.1,11.22Zm-7.56-1.59A5.05,5.05,0,0,0,653,337q0-5.3-5.93-5.29H641.3v10.54h5.76A6.3,6.3,0,0,0,651.53,340.91Z" fill="#fff"/> -->

<!-- <path d="M695.68,325.82v36.26h-7.27V346.65H672.88v15.43h-7.27V325.82h7.27v14.91h15.53V325.82Z" fill="#fff"/> -->

<!-- <path d="M727.92,342.5a10.11,10.11,0,0,1-4.32,4.1,15.64,15.64,0,0,1-7.4,1.56h-6.07v13.92h-7.28V325.82H716.2a16.11,16.11,0,0,1,7.17,1.46,10.1,10.1,0,0,1,4.44,4,11.2,11.2,0,0,1,1.48,5.76A11.4,11.4,0,0,1,727.92,342.5Zm-7.56-1.59a5,5,0,0,0,1.45-3.87q0-5.3-5.92-5.29h-5.76v10.54h5.76A6.3,6.3,0,0,0,720.36,340.91Z" fill="#fff"/> -->

<line x1="663.81" y1="173.55" x2="604.14" y2="113.88" fill="none" stroke="#fff" stroke-miterlimit="10"/>

<line x1="604.14" y1="173.55" x2="663.81" y2="113.61" fill="none" stroke="#fff" stroke-miterlimit="10"/>

<polyline points="610.14 113.85 604.14 113.88 604.14 119.88" fill="none" stroke="#fff" stroke-miterlimit="10"/>

<line x1="604.14" y1="129.41" x2="604.14" y2="162.79" fill="none" stroke="#fff" stroke-miterlimit="10" stroke-dasharray="9.53 9.53"/>

<polyline points="604.14 167.55 604.14 173.55 610.14 173.55" fill="none" stroke="#fff" stroke-miterlimit="10"/>

<line x1="619.68" y1="173.55" x2="653.05" y2="173.55" fill="none" stroke="#fff" stroke-miterlimit="10" stroke-dasharray="9.53 9.53"/>

<polyline points="657.81 173.55 663.81 173.55 663.81 167.55" fill="none" stroke="#fff" stroke-miterlimit="10"/>

<line x1="663.81" y1="157.96" x2="663.81" y2="124.4" fill="none" stroke="#fff" stroke-miterlimit="10" stroke-dasharray="9.59 9.59"/>

<polyline points="663.81 119.61 663.81 113.61 657.81 113.64" fill="none" stroke="#fff" stroke-miterlimit="10"/>

<line x1="648.28" y1="113.68" x2="614.91" y2="113.83" fill="none" stroke="#fff" stroke-miterlimit="10" stroke-dasharray="9.53 9.53"/>

<rect x="661.27" y="111.34" width="5.08" height="5.08" fill="#fff"/>

<rect x="601.6" y="111.34" width="5.08" height="5.08" fill="#fff"/>

<rect x="661.27" y="171.01" width="5.08" height="5.08" fill="#fff"/>

<rect x="601.6" y="171.01" width="5.08" height="5.08" fill="#fff"/>

</svg>