<svg xmlns="http://www.w3.org/2000/svg" data-name="Layer 1" viewBox="0 0 64 64"><polygon fill="#42eaf5" points="27 24 12 32 6 50 17 57 47 57 58 50 52 31.713 37 24 27 24"/><path fill="#42eaf5" d="M41.25,17,38.56812,6.2724A3,3,0,0,0,35.65765,4h-7.3153a3,3,0,0,0-2.91047,2.2724L22.75,17Z"/><path fill="#e3fcfd" d="M24,17H40a0,0,0,0,1,0,0v5a8,8,0,0,1-8,8h0a8,8,0,0,1-8-8V17a0,0,0,0,1,0,0Z"/><rect width="30" height="22" x="17" y="38" fill="#e3fcfd"/><path fill="#007da1" d="M5.584,52.11835l9.25953,5.89258H11.998a2.00021,2.00021,0,0,0,.00009,4H51.99805a2.00022,2.00022,0,0,0-.0001-4H49.15247l9.2655-5.897a3.02506,3.02506,0,0,0,1.24023-3.4668l-5.626-17.146a2.98768,2.98768,0,0,0-1.49024-1.749L41.74756,24.20581a26.17715,26.17715,0,0,0,.25049-5.19488h4a2,2,0,1,0,0-4H42.80963L40.50586,5.7995a4.99052,4.99052,0,0,0-4.85059-3.78857H28.33984a4.993,4.993,0,0,0-4.85058,3.7876l-2.30292,9.2124H17.99805a2.00021,2.00021,0,0,0,.00009,4h3.99991c.05185,1.43942-.1397,3.892.26723,5.25951L11.38867,30.0661A3.04972,3.04972,0,0,0,9.9707,31.759L4.36035,48.61054A2.98379,2.98379,0,0,0,5.584,52.11835Zm13.41407,5.89258v-18h26v18Zm7-36v-3h12v3C37.74611,29.94052,26.24868,29.93832,25.99805,22.01093ZM27.37012,6.76874a.99769.99769,0,0,1,.96972-.75781h7.31543a.99717.99717,0,0,1,.96973.75781l2.06152,8.24219H25.30957ZM13.64063,33.39814l10.30078-5.48847A10.02483,10.02483,0,0,0,40.09618,27.854l10.26027,5.27169,5.25878,16.03077-6.61718,4.21075V38.01093a2.0001,2.0001,0,0,0-2-2h-30a2.0001,2.0001,0,0,0-2,2V53.36719L8.3916,49.16327Z"/><path fill="#007da1" d="M32,47.01093a2.0002,2.0002,0,0,0,.00008,4A2.0002,2.0002,0,0,0,32,47.01093Z"/></svg>